<svg width="80" height="auto" viewBox="0 0 133 50" fill="white" xmlns="http://www.w3.org/2000/svg">
<path d="M19.5682 1.19192C19.5089 0.936027 19.4123 0.936027 19.3513 1.19192L14.57 21.621C14.5302 21.7587 14.457 21.8846 14.3569 21.9876C14.2568 22.0906 14.1327 22.1676 13.9956 22.2119L1.19188 25.5217C0.936041 25.5873 0.936041 25.69 1.19188 25.7641L13.8516 29.1311C13.9887 29.1755 14.1132 29.2518 14.2145 29.3538C14.3159 29.4557 14.3913 29.5802 14.4345 29.7169L19.3479 48.8093C19.4123 49.0636 19.5173 49.0636 19.5834 48.8093L24.4206 29.7354C24.4637 29.5987 24.5391 29.4742 24.6405 29.3723C24.7419 29.2704 24.8663 29.194 25.0034 29.1496L37.7665 25.7641C38.0224 25.6968 38.0207 25.5957 37.7665 25.5234L24.856 22.2321C24.7195 22.1892 24.5958 22.1134 24.4959 22.0114C24.396 21.9095 24.323 21.7847 24.2834 21.648L19.5682 1.19192Z" fill="white"/>
<path d="M66.5893 1.19192C66.53 0.936027 66.4334 0.936027 66.3724 1.19192L61.5911 21.621C61.5513 21.7587 61.4782 21.8846 61.378 21.9876C61.2779 22.0906 61.1538 22.1676 61.0167 22.2119L48.213 25.5217C47.9572 25.5873 47.9572 25.69 48.213 25.7641L60.8727 29.1311C61.0098 29.1755 61.1343 29.2518 61.2357 29.3538C61.337 29.4557 61.4124 29.5802 61.4556 29.7169L66.369 48.8093C66.4334 49.0636 66.5384 49.0636 66.6045 48.8093L71.4417 29.7354C71.4848 29.5987 71.5602 29.4742 71.6616 29.3723C71.763 29.2704 71.8874 29.194 72.0246 29.1496L84.7876 25.7641C85.0435 25.6968 85.0418 25.5957 84.7876 25.5234L71.8772 22.2321C71.7407 22.1892 71.617 22.1134 71.5171 22.0114C71.4171 21.9095 71.3441 21.7847 71.3045 21.648L66.5893 1.19192Z" fill="white"/>
<path d="M113.61 1.19192C113.551 0.936027 113.455 0.936027 113.394 1.19192L108.612 21.621C108.572 21.7587 108.499 21.8846 108.399 21.9876C108.299 22.0906 108.175 22.1676 108.038 22.2119L95.2341 25.5217C94.9783 25.5873 94.9783 25.69 95.2341 25.7641L107.894 29.1311C108.031 29.1755 108.155 29.2518 108.257 29.3538C108.358 29.4557 108.434 29.5802 108.477 29.7169L113.39 48.8093C113.455 49.0636 113.56 49.0636 113.626 48.8093L118.463 29.7354C118.506 29.5987 118.581 29.4742 118.683 29.3723C118.784 29.2704 118.909 29.194 119.046 29.1496L131.809 25.7641C132.065 25.6968 132.063 25.5957 131.809 25.5234L118.898 22.2321C118.762 22.1892 118.638 22.1134 118.538 22.0114C118.438 21.9095 118.365 21.7847 118.326 21.648L113.61 1.19192Z" fill="white"/>
<path d="M19.5682 1.19192C19.5089 0.936027 19.4123 0.936027 19.3513 1.19192L14.57 21.621C14.5302 21.7587 14.457 21.8846 14.3569 21.9876C14.2568 22.0906 14.1327 22.1676 13.9956 22.2119L1.19188 25.5217C0.936041 25.5873 0.936041 25.69 1.19188 25.7641L13.8516 29.1311C13.9887 29.1755 14.1132 29.2518 14.2145 29.3538C14.3159 29.4557 14.3913 29.5802 14.4345 29.7169L19.3479 48.8093C19.4123 49.0636 19.5173 49.0636 19.5834 48.8093L24.4206 29.7354C24.4637 29.5987 24.5391 29.4742 24.6405 29.3723C24.7419 29.2704 24.8663 29.194 25.0034 29.1496L37.7665 25.7641C38.0224 25.6968 38.0207 25.5957 37.7665 25.5234L24.856 22.2321C24.7195 22.1892 24.5958 22.1134 24.4959 22.0114C24.396 21.9095 24.323 21.7847 24.2834 21.648L19.5682 1.19192Z" stroke="white" stroke-miterlimit="10"/>
<path d="M66.5893 1.19192C66.53 0.936027 66.4334 0.936027 66.3724 1.19192L61.5911 21.621C61.5513 21.7587 61.4782 21.8846 61.378 21.9876C61.2779 22.0906 61.1538 22.1676 61.0167 22.2119L48.213 25.5217C47.9572 25.5873 47.9572 25.69 48.213 25.7641L60.8727 29.1311C61.0098 29.1755 61.1343 29.2518 61.2357 29.3538C61.337 29.4557 61.4124 29.5802 61.4556 29.7169L66.369 48.8093C66.4334 49.0636 66.5384 49.0636 66.6045 48.8093L71.4417 29.7354C71.4848 29.5987 71.5602 29.4742 71.6616 29.3723C71.763 29.2704 71.8874 29.194 72.0246 29.1496L84.7876 25.7641C85.0435 25.6968 85.0418 25.5957 84.7876 25.5234L71.8772 22.2321C71.7407 22.1892 71.617 22.1134 71.5171 22.0114C71.4171 21.9095 71.3441 21.7847 71.3045 21.648L66.5893 1.19192Z" stroke="white" stroke-miterlimit="10"/>
<path d="M113.61 1.19192C113.551 0.936027 113.455 0.936027 113.394 1.19192L108.612 21.621C108.572 21.7587 108.499 21.8846 108.399 21.9876C108.299 22.0906 108.175 22.1676 108.038 22.2119L95.2341 25.5217C94.9783 25.5873 94.9783 25.69 95.2341 25.7641L107.894 29.1311C108.031 29.1755 108.155 29.2518 108.257 29.3538C108.358 29.4557 108.434 29.5802 108.477 29.7169L113.39 48.8093C113.455 49.0636 113.56 49.0636 113.626 48.8093L118.463 29.7354C118.506 29.5987 118.581 29.4742 118.683 29.3723C118.784 29.2704 118.909 29.194 119.046 29.1496L131.809 25.7641C132.065 25.6968 132.063 25.5957 131.809 25.5234L118.898 22.2321C118.762 22.1892 118.638 22.1134 118.538 22.0114C118.438 21.9095 118.365 21.7847 118.326 21.648L113.61 1.19192Z" stroke="white" stroke-miterlimit="10"/>
</svg>
